#!OML:ASF \\sashay\E\Suitcase\Project 1\Capture day 1\Session 1\Male1.ASF
:FULLY-SPECIFIED
:DEGREES
1274
root -1.91989 17.5064 10.2871 9.84957 4.65571 -1.05659
lowerback 1.89225 -2.46303 3.88757
upperback 1.11017 -3.21229 3.42525
thorax 0.0639201 -1.5963 1.3989
lowerneck -14.5424 -1.09694 -3.62972
upperneck 21.7727 1.60552 -9.36225
head 9.37848 -0.58472 -2.42949
rclavicle 4.47266e-014 -3.18055e-014
rhumerus -31.5956 -15.4588 -71.3722
rradius 13.3938
rwrist -10.9097
rhand -14.7518 11.9741
rfingers 7.12502
rthumb 11.4042 -17.6957
lclavicle 4.47266e-014 -3.18055e-014
lhumerus -30.7841 -11.3731 91.9324
lradius 36.5033
lwrist -1.41259
lhand 1.062 44.7624
lfingers 7.12502
lthumb 26.6072 72.913
rfemur -10.3307 -1.32253 27.2913
rtibia 16.6125
rfoot -15.2679 -15.2311
rtoes 16.1197
lfemur -10.0165 -3.35787 -12.7726
ltibia 16.615
lfoot -14.5912 4.49459
ltoes -4.40096
1275
root -1.89048 17.5064 10.2741 9.80078 5.18403 -0.580616
lowerback 1.76046 -2.56483 3.99512
upperback 1.17645 -3.35748 3.22394
thorax 0.186973 -1.66532 1.12744
lowerneck -14.8881 -1.21929 -3.71511
upperneck 22.1504 1.49538 -9.26126
head 9.57225 -0.6559 -2.40806
rclavicle 1.03368e-014 -2.94201e-014
rhumerus -30.9259 -14.9314 -71.7749
rradius 13.3822
rwrist -11.9839
rhand -15.1184 12.0158
rfingers 7.12502
rthumb 11.0506 -17.6733
lclavicle 1.03368e-014 -2.94201e-014
lhumerus -30.6475 -11.7866 92.1104
lradius 36.627
lwrist -1.30785
lhand 1.48734 44.3426
lfingers 7.12502
lthumb 27.0142 72.4308
rfemur -10.4346 -2.61823 26.7202
rtibia 17.0259
rfoot -15.4502 -14.5095
rtoes 15.6283
lfemur -9.79194 -3.55475 -13.4011
ltibia 16.2921
lfoot -14.4513 4.3466
ltoes -5.27611
1276
root -1.89705 17.4954 10.2439 9.64174 5.27466 -0.933151
lowerback 1.9564 -2.53944 4.25182
upperback 1.22337 -3.30845 3.33069
thorax 0.11823 -1.64005 1.10222
lowerneck -15.1757 -1.28299 -3.57992
upperneck 22.4534 1.42272 -9.26305
head 9.73092 -0.697721 -2.45267
rclavicle 8.34896e-015 1.27222e-014
rhumerus -30.4636 -15.7708 -71.5613
rradius 13.4729
rwrist -11.4675
rhand -14.9144 12.2699
rfingers 7.12502
rthumb 11.2473 -17.4086
lclavicle 8.34896e-015 1.27222e-014
lhumerus -30.4239 -11.892 92.1476
lradius 36.7603
lwrist -1.2483
lhand 1.58786 44.7359
lfingers 7.12502
lthumb 27.1104 72.8092
rfemur -10.4973 -2.01049 27.1377
rtibia 17.2076
rfoot -15.5161 -15.0828
rtoes 15.6296
lfemur -9.74382 -3.57152 -12.9736
ltibia 16.2442
lfoot -14.3022 4.47902
ltoes -5.87175
1277
root -1.90033 17.4968 10.2523 9.57911 5.39783 -0.531172
lowerback 1.59302 -2.47707 3.76615
upperback 1.36926 -3.26437 3.31776
thorax 0.497849 -1.6161 1.33519
lowerneck -15.462 -1.47759 -3.86276
upperneck 22.7133 1.22642 -9.0819
head 9.87114 -0.809309 -2.37805
rclavicle 1.92821e-014 -9.54166e-015
rhumerus -30.1524 -16.0024 -71.4207
rradius 13.9834
rwrist -11.5683
rhand -14.7556 12.8445
rfingers 7.12502
rthumb 11.4005 -16.8256
lclavicle 1.92821e-014 -9.54166e-015
lhumerus -30.0526 -12.3527 92.4685
lradius 36.6715
lwrist -0.96505
lhand 1.20324 44.8132
lfingers 7.12502
lthumb 26.7424 72.9432
rfemur -10.4044 -2.0067 26.7005
rtibia 17.3263
rfoot -15.6511 -15.2116
rtoes 15.4414
lfemur -9.55879 -3.55996 -13.4244
ltibia 16.1102
lfoot -14.3302 4.37714
ltoes -6.13407
1278
root -1.89618 17.4987 10.2403 9.43144 5.55611 -0.78378
lowerback 1.7969 -2.51424 4.17694
upperback 1.20193 -3.28591 3.31038
thorax 0.188626 -1.62841 1.11513
lowerneck -15.1832 -1.53714 -3.95358
upperneck 22.8981 1.09794 -8.82969
head 9.87615 -0.848845 -2.291
rclavicle -1.19271e-015 -3.49861e-014
rhumerus -29.7069 -15.6367 -71.6905
rradius 13.7483
rwrist -12.2734
rhand -14.7893 12.4726
rfingers 7.12502
rthumb 11.368 -17.1993
lclavicle -1.19271e-015 -3.49861e-014
lhumerus -30.4953 -12.357 92.4683
lradius 36.9542
lwrist -1.18617
lhand 1.26151 44.506
lfingers 7.12502
lthumb 26.7981 72.6275
rfemur -10.2675 -2.05248 26.9745
rtibia 17.2373
rfoot -15.5615 -15.2526
rtoes 15.221
lfemur -9.54751 -3.58776 -13.1349
ltibia 16.154
lfoot -14.368 4.26138
ltoes -5.81215
